%TF.GenerationSoftware,KiCad,Pcbnew,8.0.1*%
%TF.CreationDate,2024-06-15T21:44:37+02:00*%
%TF.ProjectId,Makita_Akku_MOSFET_Platine,4d616b69-7461-45f4-916b-6b755f4d4f53,rev?*%
%TF.SameCoordinates,Original*%
%TF.FileFunction,Copper,L1,Top*%
%TF.FilePolarity,Positive*%
%FSLAX46Y46*%
G04 Gerber Fmt 4.6, Leading zero omitted, Abs format (unit mm)*
G04 Created by KiCad (PCBNEW 8.0.1) date 2024-06-15 21:44:37*
%MOMM*%
%LPD*%
G01*
G04 APERTURE LIST*
%TA.AperFunction,ComponentPad*%
%ADD10R,2.200000X2.200000*%
%TD*%
%TA.AperFunction,ComponentPad*%
%ADD11C,2.200000*%
%TD*%
%TA.AperFunction,ComponentPad*%
%ADD12C,1.600000*%
%TD*%
%TA.AperFunction,ComponentPad*%
%ADD13O,1.600000X1.600000*%
%TD*%
%TA.AperFunction,ComponentPad*%
%ADD14C,2.032000*%
%TD*%
%TA.AperFunction,Conductor*%
%ADD15C,0.812800*%
%TD*%
G04 APERTURE END LIST*
D10*
%TO.P,J2,1,Pin_1*%
%TO.N,/VCC*%
X73342500Y-47466250D03*
D11*
%TO.P,J2,2,Pin_2*%
X73342500Y-44926250D03*
%TO.P,J2,3,Pin_3*%
X73342500Y-42386250D03*
%TO.P,J2,4,Pin_4*%
%TO.N,unconnected-(J2-Pin_4-Pad4)*%
X73342500Y-39846250D03*
%TO.P,J2,5,Pin_5*%
%TO.N,/GND_Drain*%
X73342500Y-37306250D03*
%TO.P,J2,6,Pin_6*%
X73342500Y-34766250D03*
%TO.P,J2,7,Pin_7*%
X73342500Y-32226250D03*
%TD*%
D12*
%TO.P,R2,1*%
%TO.N,/GND_Source*%
X58420000Y-24288750D03*
D13*
%TO.P,R2,2*%
%TO.N,Net-(U1-G)*%
X50800000Y-24288750D03*
%TD*%
D12*
%TO.P,R1,1*%
%TO.N,/Vgs*%
X37782500Y-24288750D03*
D13*
%TO.P,R1,2*%
%TO.N,Net-(U1-G)*%
X45402500Y-24288750D03*
%TD*%
D10*
%TO.P,J1,1,Pin_1*%
%TO.N,/VCC*%
X30956250Y-49530000D03*
D11*
%TO.P,J1,2,Pin_2*%
X30956250Y-46990000D03*
%TO.P,J1,3,Pin_3*%
X30956250Y-44450000D03*
%TO.P,J1,4,Pin_4*%
%TO.N,unconnected-(J1-Pin_4-Pad4)*%
X30956250Y-41910000D03*
%TO.P,J1,5,Pin_5*%
%TO.N,/GND_Source*%
X30956250Y-39370000D03*
%TO.P,J1,6,Pin_6*%
X30956250Y-36830000D03*
%TO.P,J1,7,Pin_7*%
X30956250Y-34290000D03*
%TO.P,J1,8,Pin_8*%
%TO.N,/Vgs*%
X30956250Y-31750000D03*
%TD*%
D14*
%TO.P,U1,3,S*%
%TO.N,/GND_Source*%
X52070000Y-43264999D03*
%TO.P,U1,2,D*%
%TO.N,/GND_Drain*%
X52070000Y-37824999D03*
%TO.P,U1,1,G*%
%TO.N,Net-(U1-G)*%
X52070000Y-32385000D03*
%TD*%
D13*
%TO.P,R3,2*%
%TO.N,/GND_Source*%
X59055000Y-38258750D03*
D12*
%TO.P,R3,1*%
%TO.N,Net-(U1-G)*%
X59055000Y-30638750D03*
%TD*%
D15*
%TO.N,/Vgs*%
X30956250Y-25717500D02*
X30956250Y-31750000D01*
X32385000Y-24288750D02*
X37782500Y-24288750D01*
X30956250Y-25717500D02*
X32385000Y-24288750D01*
%TD*%
%TA.AperFunction,Conductor*%
%TO.N,/GND_Source*%
G36*
X63443039Y-22520185D02*
G01*
X63488794Y-22572989D01*
X63500000Y-22624500D01*
X63500000Y-45913500D01*
X63480315Y-45980539D01*
X63427511Y-46026294D01*
X63376000Y-46037500D01*
X41399000Y-46037500D01*
X41331961Y-46017815D01*
X41286206Y-45965011D01*
X41275000Y-45913500D01*
X41275000Y-40640000D01*
X31979417Y-40640000D01*
X31912378Y-40620315D01*
X31903869Y-40613992D01*
X31903846Y-40614025D01*
X31899913Y-40611167D01*
X31899909Y-40611164D01*
X31899904Y-40611161D01*
X31899900Y-40611158D01*
X31685109Y-40479533D01*
X31452360Y-40383126D01*
X31207401Y-40324317D01*
X30956250Y-40304551D01*
X30705098Y-40324317D01*
X30460139Y-40383126D01*
X30227390Y-40479533D01*
X30012599Y-40611158D01*
X30008654Y-40614025D01*
X30007823Y-40612882D01*
X29949863Y-40638859D01*
X29933083Y-40640000D01*
X28064000Y-40640000D01*
X27996961Y-40620315D01*
X27951206Y-40567511D01*
X27940000Y-40516000D01*
X27940000Y-37824999D01*
X50548811Y-37824999D01*
X50567538Y-38062962D01*
X50623261Y-38295067D01*
X50714608Y-38515599D01*
X50714610Y-38515603D01*
X50714611Y-38515604D01*
X50839332Y-38719131D01*
X50994357Y-38900642D01*
X51175868Y-39055667D01*
X51379395Y-39180388D01*
X51379397Y-39180388D01*
X51379399Y-39180390D01*
X51455071Y-39211734D01*
X51599927Y-39271736D01*
X51832034Y-39327460D01*
X52070000Y-39346188D01*
X52307966Y-39327460D01*
X52540073Y-39271736D01*
X52760605Y-39180388D01*
X52964132Y-39055667D01*
X53145643Y-38900642D01*
X53300668Y-38719131D01*
X53425389Y-38515604D01*
X53516737Y-38295072D01*
X53572461Y-38062965D01*
X53591189Y-37824999D01*
X53572461Y-37587033D01*
X53516737Y-37354926D01*
X53425389Y-37134394D01*
X53300668Y-36930867D01*
X53145643Y-36749356D01*
X52964132Y-36594331D01*
X52760605Y-36469610D01*
X52760604Y-36469609D01*
X52760600Y-36469607D01*
X52540068Y-36378260D01*
X52307962Y-36322537D01*
X52307963Y-36322537D01*
X52070000Y-36303810D01*
X51832036Y-36322537D01*
X51599931Y-36378260D01*
X51379399Y-36469607D01*
X51175867Y-36594331D01*
X50994357Y-36749356D01*
X50839332Y-36930866D01*
X50714608Y-37134398D01*
X50623261Y-37354930D01*
X50567538Y-37587035D01*
X50548811Y-37824999D01*
X27940000Y-37824999D01*
X27940000Y-27111500D01*
X27959685Y-27044461D01*
X28012489Y-26998706D01*
X28064000Y-26987500D01*
X29925350Y-26987500D01*
X29992389Y-27007185D01*
X30038144Y-27059989D01*
X30049350Y-27111500D01*
X30049350Y-30362604D01*
X30029665Y-30429643D01*
X30005882Y-30456894D01*
X29821026Y-30614776D01*
X29657411Y-30806343D01*
X29657410Y-30806346D01*
X29525783Y-31021140D01*
X29429376Y-31253889D01*
X29370567Y-31498848D01*
X29350801Y-31750000D01*
X29370567Y-32001151D01*
X29429376Y-32246110D01*
X29525783Y-32478859D01*
X29657410Y-32693653D01*
X29657411Y-32693656D01*
X29657414Y-32693659D01*
X29821026Y-32885224D01*
X29969316Y-33011875D01*
X30012593Y-33048838D01*
X30012596Y-33048839D01*
X30227390Y-33180466D01*
X30460139Y-33276873D01*
X30705102Y-33335683D01*
X30956250Y-33355449D01*
X31207398Y-33335683D01*
X31452361Y-33276873D01*
X31685109Y-33180466D01*
X31899909Y-33048836D01*
X32091474Y-32885224D01*
X32255086Y-32693659D01*
X32386716Y-32478859D01*
X32425594Y-32385000D01*
X50548811Y-32385000D01*
X50567538Y-32622963D01*
X50623261Y-32855068D01*
X50714608Y-33075600D01*
X50714610Y-33075604D01*
X50714611Y-33075605D01*
X50839332Y-33279132D01*
X50994357Y-33460643D01*
X51175868Y-33615668D01*
X51379395Y-33740389D01*
X51379397Y-33740389D01*
X51379399Y-33740391D01*
X51455071Y-33771735D01*
X51599927Y-33831737D01*
X51832034Y-33887461D01*
X52070000Y-33906189D01*
X52307966Y-33887461D01*
X52540073Y-33831737D01*
X52760605Y-33740389D01*
X52964132Y-33615668D01*
X53145643Y-33460643D01*
X53300668Y-33279132D01*
X53425389Y-33075605D01*
X53516737Y-32855073D01*
X53572461Y-32622966D01*
X53591189Y-32385000D01*
X53572461Y-32147034D01*
X53516737Y-31914927D01*
X53425389Y-31694395D01*
X53300668Y-31490868D01*
X53145643Y-31309357D01*
X52964132Y-31154332D01*
X52760605Y-31029611D01*
X52760604Y-31029610D01*
X52760600Y-31029608D01*
X52540068Y-30938261D01*
X52307962Y-30882538D01*
X52307963Y-30882538D01*
X52070000Y-30863811D01*
X51832036Y-30882538D01*
X51599931Y-30938261D01*
X51379399Y-31029608D01*
X51175867Y-31154332D01*
X50994357Y-31309357D01*
X50839332Y-31490867D01*
X50714608Y-31694399D01*
X50623261Y-31914931D01*
X50567538Y-32147036D01*
X50548811Y-32385000D01*
X32425594Y-32385000D01*
X32483123Y-32246111D01*
X32541933Y-32001148D01*
X32561699Y-31750000D01*
X32541933Y-31498852D01*
X32483123Y-31253889D01*
X32441885Y-31154332D01*
X32386716Y-31021140D01*
X32255089Y-30806346D01*
X32255088Y-30806343D01*
X32218125Y-30763066D01*
X32111950Y-30638751D01*
X57749532Y-30638751D01*
X57769364Y-30865436D01*
X57769366Y-30865447D01*
X57828258Y-31085238D01*
X57828261Y-31085247D01*
X57924431Y-31291482D01*
X57924432Y-31291484D01*
X58054954Y-31477891D01*
X58215858Y-31638795D01*
X58215861Y-31638797D01*
X58402266Y-31769318D01*
X58608504Y-31865489D01*
X58828308Y-31924385D01*
X58990230Y-31938551D01*
X59054998Y-31944218D01*
X59055000Y-31944218D01*
X59055002Y-31944218D01*
X59111673Y-31939259D01*
X59281692Y-31924385D01*
X59501496Y-31865489D01*
X59707734Y-31769318D01*
X59894139Y-31638797D01*
X60055047Y-31477889D01*
X60185568Y-31291484D01*
X60281739Y-31085246D01*
X60340635Y-30865442D01*
X60360468Y-30638750D01*
X60340635Y-30412058D01*
X60281739Y-30192254D01*
X60185568Y-29986016D01*
X60055047Y-29799611D01*
X60055045Y-29799608D01*
X59894141Y-29638704D01*
X59707734Y-29508182D01*
X59707732Y-29508181D01*
X59501497Y-29412011D01*
X59501488Y-29412008D01*
X59281697Y-29353116D01*
X59281693Y-29353115D01*
X59281692Y-29353115D01*
X59281691Y-29353114D01*
X59281686Y-29353114D01*
X59055002Y-29333282D01*
X59054998Y-29333282D01*
X58828313Y-29353114D01*
X58828302Y-29353116D01*
X58608511Y-29412008D01*
X58608502Y-29412011D01*
X58402267Y-29508181D01*
X58402265Y-29508182D01*
X58215858Y-29638704D01*
X58054954Y-29799608D01*
X57924432Y-29986015D01*
X57924431Y-29986017D01*
X57828261Y-30192252D01*
X57828258Y-30192261D01*
X57769366Y-30412052D01*
X57769364Y-30412063D01*
X57749532Y-30638748D01*
X57749532Y-30638751D01*
X32111950Y-30638751D01*
X32091474Y-30614776D01*
X31906618Y-30456894D01*
X31868425Y-30398387D01*
X31863150Y-30362604D01*
X31863150Y-27111500D01*
X31882835Y-27044461D01*
X31935639Y-26998706D01*
X31987150Y-26987500D01*
X53975000Y-26987500D01*
X53975000Y-22624500D01*
X53994685Y-22557461D01*
X54047489Y-22511706D01*
X54099000Y-22500500D01*
X63376000Y-22500500D01*
X63443039Y-22520185D01*
G37*
%TD.AperFunction*%
%TD*%
%TA.AperFunction,Conductor*%
%TO.N,/VCC*%
G36*
X72386372Y-41135935D02*
G01*
X72394880Y-41142257D01*
X72394904Y-41142225D01*
X72398834Y-41145080D01*
X72398841Y-41145086D01*
X72398848Y-41145090D01*
X72398849Y-41145091D01*
X72613640Y-41276716D01*
X72846389Y-41373123D01*
X73091352Y-41431933D01*
X73342500Y-41451699D01*
X73593648Y-41431933D01*
X73838611Y-41373123D01*
X74071359Y-41276716D01*
X74286159Y-41145086D01*
X74286171Y-41145075D01*
X74290096Y-41142225D01*
X74290926Y-41143367D01*
X74348887Y-41117391D01*
X74365667Y-41116250D01*
X77663500Y-41116250D01*
X77730539Y-41135935D01*
X77776294Y-41188739D01*
X77787500Y-41240250D01*
X77787500Y-55438500D01*
X77767815Y-55505539D01*
X77715011Y-55551294D01*
X77663500Y-55562500D01*
X28064000Y-55562500D01*
X27996961Y-55542815D01*
X27951206Y-55490011D01*
X27940000Y-55438500D01*
X27940000Y-43304000D01*
X27959685Y-43236961D01*
X28012489Y-43191206D01*
X28064000Y-43180000D01*
X29933083Y-43180000D01*
X30000122Y-43199685D01*
X30008630Y-43206007D01*
X30008654Y-43205975D01*
X30012584Y-43208830D01*
X30012591Y-43208836D01*
X30012598Y-43208840D01*
X30012599Y-43208841D01*
X30227390Y-43340466D01*
X30460139Y-43436873D01*
X30705102Y-43495683D01*
X30956250Y-43515449D01*
X31207398Y-43495683D01*
X31452361Y-43436873D01*
X31685109Y-43340466D01*
X31899909Y-43208836D01*
X31899921Y-43208825D01*
X31903846Y-43205975D01*
X31904676Y-43207117D01*
X31962637Y-43181141D01*
X31979417Y-43180000D01*
X37976000Y-43180000D01*
X38043039Y-43199685D01*
X38088794Y-43252489D01*
X38100000Y-43304000D01*
X38100000Y-49212500D01*
X66675000Y-49212500D01*
X66675000Y-41240250D01*
X66694685Y-41173211D01*
X66747489Y-41127456D01*
X66799000Y-41116250D01*
X72319333Y-41116250D01*
X72386372Y-41135935D01*
G37*
%TD.AperFunction*%
%TD*%
M02*
