%TF.GenerationSoftware,KiCad,Pcbnew,8.0.1*%
%TF.CreationDate,2024-06-15T21:44:37+02:00*%
%TF.ProjectId,Makita_Akku_MOSFET_Platine,4d616b69-7461-45f4-916b-6b755f4d4f53,rev?*%
%TF.SameCoordinates,Original*%
%TF.FileFunction,Copper,L4,Bot*%
%TF.FilePolarity,Positive*%
%FSLAX46Y46*%
G04 Gerber Fmt 4.6, Leading zero omitted, Abs format (unit mm)*
G04 Created by KiCad (PCBNEW 8.0.1) date 2024-06-15 21:44:37*
%MOMM*%
%LPD*%
G01*
G04 APERTURE LIST*
%TA.AperFunction,ComponentPad*%
%ADD10R,2.200000X2.200000*%
%TD*%
%TA.AperFunction,ComponentPad*%
%ADD11C,2.200000*%
%TD*%
%TA.AperFunction,ComponentPad*%
%ADD12C,1.600000*%
%TD*%
%TA.AperFunction,ComponentPad*%
%ADD13O,1.600000X1.600000*%
%TD*%
%TA.AperFunction,ComponentPad*%
%ADD14C,2.032000*%
%TD*%
%TA.AperFunction,Conductor*%
%ADD15C,0.812800*%
%TD*%
G04 APERTURE END LIST*
D10*
%TO.P,J2,1,Pin_1*%
%TO.N,/VCC*%
X73342500Y-47466250D03*
D11*
%TO.P,J2,2,Pin_2*%
X73342500Y-44926250D03*
%TO.P,J2,3,Pin_3*%
X73342500Y-42386250D03*
%TO.P,J2,4,Pin_4*%
%TO.N,unconnected-(J2-Pin_4-Pad4)*%
X73342500Y-39846250D03*
%TO.P,J2,5,Pin_5*%
%TO.N,/GND_Drain*%
X73342500Y-37306250D03*
%TO.P,J2,6,Pin_6*%
X73342500Y-34766250D03*
%TO.P,J2,7,Pin_7*%
X73342500Y-32226250D03*
%TD*%
D12*
%TO.P,R2,1*%
%TO.N,/GND_Source*%
X58420000Y-24288750D03*
D13*
%TO.P,R2,2*%
%TO.N,Net-(U1-G)*%
X50800000Y-24288750D03*
%TD*%
D12*
%TO.P,R1,1*%
%TO.N,/Vgs*%
X37782500Y-24288750D03*
D13*
%TO.P,R1,2*%
%TO.N,Net-(U1-G)*%
X45402500Y-24288750D03*
%TD*%
D10*
%TO.P,J1,1,Pin_1*%
%TO.N,/VCC*%
X30956250Y-49530000D03*
D11*
%TO.P,J1,2,Pin_2*%
X30956250Y-46990000D03*
%TO.P,J1,3,Pin_3*%
X30956250Y-44450000D03*
%TO.P,J1,4,Pin_4*%
%TO.N,unconnected-(J1-Pin_4-Pad4)*%
X30956250Y-41910000D03*
%TO.P,J1,5,Pin_5*%
%TO.N,/GND_Source*%
X30956250Y-39370000D03*
%TO.P,J1,6,Pin_6*%
X30956250Y-36830000D03*
%TO.P,J1,7,Pin_7*%
X30956250Y-34290000D03*
%TO.P,J1,8,Pin_8*%
%TO.N,/Vgs*%
X30956250Y-31750000D03*
%TD*%
D14*
%TO.P,U1,3,S*%
%TO.N,/GND_Source*%
X52070000Y-43264999D03*
%TO.P,U1,2,D*%
%TO.N,/GND_Drain*%
X52070000Y-37824999D03*
%TO.P,U1,1,G*%
%TO.N,Net-(U1-G)*%
X52070000Y-32385000D03*
%TD*%
D13*
%TO.P,R3,2*%
%TO.N,/GND_Source*%
X59055000Y-38258750D03*
D12*
%TO.P,R3,1*%
%TO.N,Net-(U1-G)*%
X59055000Y-30638750D03*
%TD*%
D15*
%TO.N,Net-(U1-G)*%
X48418750Y-24288750D02*
X47783750Y-24288750D01*
X49053750Y-32385000D02*
X48418750Y-31750000D01*
X52070000Y-32385000D02*
X57308750Y-32385000D01*
X48418750Y-31750000D02*
X48418750Y-24288750D01*
X57308750Y-32385000D02*
X59055000Y-30638750D01*
X47783750Y-24288750D02*
X45402500Y-24288750D01*
X52070000Y-32385000D02*
X49053750Y-32385000D01*
X50800000Y-24288750D02*
X48418750Y-24288750D01*
%TD*%
%TA.AperFunction,Conductor*%
%TO.N,/GND_Drain*%
G36*
X77730539Y-30182185D02*
G01*
X77776294Y-30234989D01*
X77787500Y-30286500D01*
X77787500Y-38452250D01*
X77767815Y-38519289D01*
X77715011Y-38565044D01*
X77663500Y-38576250D01*
X74365667Y-38576250D01*
X74298628Y-38556565D01*
X74290119Y-38550242D01*
X74290096Y-38550275D01*
X74286163Y-38547417D01*
X74286159Y-38547414D01*
X74286154Y-38547411D01*
X74286150Y-38547408D01*
X74071359Y-38415783D01*
X73838610Y-38319376D01*
X73593651Y-38260567D01*
X73342500Y-38240801D01*
X73091348Y-38260567D01*
X72846389Y-38319376D01*
X72613640Y-38415783D01*
X72398849Y-38547408D01*
X72394904Y-38550275D01*
X72394073Y-38549132D01*
X72336113Y-38575109D01*
X72319333Y-38576250D01*
X69056250Y-38576250D01*
X69056250Y-45913500D01*
X69036565Y-45980539D01*
X68983761Y-46026294D01*
X68932250Y-46037500D01*
X49371250Y-46037500D01*
X47749000Y-46037500D01*
X47681961Y-46017815D01*
X47636206Y-45965011D01*
X47625000Y-45913500D01*
X47625000Y-43264999D01*
X50548811Y-43264999D01*
X50567538Y-43502962D01*
X50623261Y-43735067D01*
X50714608Y-43955599D01*
X50714610Y-43955603D01*
X50714611Y-43955604D01*
X50839332Y-44159131D01*
X50994357Y-44340642D01*
X51175868Y-44495667D01*
X51379395Y-44620388D01*
X51379397Y-44620388D01*
X51379399Y-44620390D01*
X51455071Y-44651734D01*
X51599927Y-44711736D01*
X51832034Y-44767460D01*
X52070000Y-44786188D01*
X52307966Y-44767460D01*
X52540073Y-44711736D01*
X52760605Y-44620388D01*
X52964132Y-44495667D01*
X53145643Y-44340642D01*
X53300668Y-44159131D01*
X53425389Y-43955604D01*
X53516737Y-43735072D01*
X53572461Y-43502965D01*
X53591189Y-43264999D01*
X53572461Y-43027033D01*
X53516737Y-42794926D01*
X53425389Y-42574394D01*
X53300668Y-42370867D01*
X53145643Y-42189356D01*
X52964132Y-42034331D01*
X52760605Y-41909610D01*
X52760604Y-41909609D01*
X52760600Y-41909607D01*
X52540068Y-41818260D01*
X52307962Y-41762537D01*
X52307963Y-41762537D01*
X52070000Y-41743810D01*
X51832036Y-41762537D01*
X51599931Y-41818260D01*
X51379399Y-41909607D01*
X51175867Y-42034331D01*
X50994357Y-42189356D01*
X50839332Y-42370866D01*
X50714608Y-42574398D01*
X50623261Y-42794930D01*
X50567538Y-43027035D01*
X50548811Y-43264999D01*
X47625000Y-43264999D01*
X47625000Y-38258751D01*
X57749532Y-38258751D01*
X57769364Y-38485436D01*
X57769366Y-38485447D01*
X57828258Y-38705238D01*
X57828261Y-38705247D01*
X57924431Y-38911482D01*
X57924432Y-38911484D01*
X58054954Y-39097891D01*
X58215858Y-39258795D01*
X58215861Y-39258797D01*
X58402266Y-39389318D01*
X58608504Y-39485489D01*
X58828308Y-39544385D01*
X58990230Y-39558551D01*
X59054998Y-39564218D01*
X59055000Y-39564218D01*
X59055002Y-39564218D01*
X59111673Y-39559259D01*
X59281692Y-39544385D01*
X59501496Y-39485489D01*
X59707734Y-39389318D01*
X59894139Y-39258797D01*
X60055047Y-39097889D01*
X60185568Y-38911484D01*
X60281739Y-38705246D01*
X60340635Y-38485442D01*
X60360468Y-38258750D01*
X60340635Y-38032058D01*
X60281739Y-37812254D01*
X60185568Y-37606016D01*
X60055047Y-37419611D01*
X60055045Y-37419608D01*
X59894141Y-37258704D01*
X59707734Y-37128182D01*
X59707732Y-37128181D01*
X59501497Y-37032011D01*
X59501488Y-37032008D01*
X59281697Y-36973116D01*
X59281693Y-36973115D01*
X59281692Y-36973115D01*
X59281691Y-36973114D01*
X59281686Y-36973114D01*
X59055002Y-36953282D01*
X59054998Y-36953282D01*
X58828313Y-36973114D01*
X58828302Y-36973116D01*
X58608511Y-37032008D01*
X58608502Y-37032011D01*
X58402267Y-37128181D01*
X58402265Y-37128182D01*
X58215858Y-37258704D01*
X58054954Y-37419608D01*
X57924432Y-37606015D01*
X57924431Y-37606017D01*
X57828261Y-37812252D01*
X57828258Y-37812261D01*
X57769366Y-38032052D01*
X57769364Y-38032063D01*
X57749532Y-38258748D01*
X57749532Y-38258751D01*
X47625000Y-38258751D01*
X47625000Y-35049000D01*
X47644685Y-34981961D01*
X47697489Y-34936206D01*
X47749000Y-34925000D01*
X62230000Y-34925000D01*
X62230000Y-30286500D01*
X62249685Y-30219461D01*
X62302489Y-30173706D01*
X62354000Y-30162500D01*
X77663500Y-30162500D01*
X77730539Y-30182185D01*
G37*
%TD.AperFunction*%
%TD*%
M02*
