M48
; DRILL file {KiCad 8.0.1} date 2024-06-15T21:44:37+0200
; FORMAT={-:-/ absolute / inch / decimal}
; #@! TF.CreationDate,2024-06-15T21:44:37+02:00
; #@! TF.GenerationSoftware,Kicad,Pcbnew,8.0.1
; #@! TF.FileFunction,Plated,1,4,PTH
FMAT,2
INCH
; #@! TA.AperFunction,Plated,PTH,ComponentDrill
T1C0.0315
; #@! TA.AperFunction,Plated,PTH,ComponentDrill
T2C0.0433
; #@! TA.AperFunction,Plated,PTH,ComponentDrill
T3C0.0600
%
G90
G05
T1
X1.4875Y-0.9562
X1.7875Y-0.9562
X2.0Y-0.9562
X2.3Y-0.9562
X2.325Y-1.2063
X2.325Y-1.5062
T2
X1.2188Y-1.25
X1.2188Y-1.35
X1.2188Y-1.45
X1.2188Y-1.55
X1.2188Y-1.65
X1.2188Y-1.75
X1.2188Y-1.85
X1.2188Y-1.95
X2.8875Y-1.2688
X2.8875Y-1.3687
X2.8875Y-1.4688
X2.8875Y-1.5687
X2.8875Y-1.6687
X2.8875Y-1.7688
X2.8875Y-1.8687
T3
X2.05Y-1.275
X2.05Y-1.4892
X2.05Y-1.7033
M30
