%TF.GenerationSoftware,KiCad,Pcbnew,8.0.1*%
%TF.CreationDate,2024-06-15T21:44:37+02:00*%
%TF.ProjectId,Makita_Akku_MOSFET_Platine,4d616b69-7461-45f4-916b-6b755f4d4f53,rev?*%
%TF.SameCoordinates,Original*%
%TF.FileFunction,Legend,Top*%
%TF.FilePolarity,Positive*%
%FSLAX46Y46*%
G04 Gerber Fmt 4.6, Leading zero omitted, Abs format (unit mm)*
G04 Created by KiCad (PCBNEW 8.0.1) date 2024-06-15 21:44:37*
%MOMM*%
%LPD*%
G01*
G04 APERTURE LIST*
%ADD10C,0.150000*%
%ADD11C,0.120000*%
%ADD12C,0.152400*%
%ADD13R,2.200000X2.200000*%
%ADD14C,2.200000*%
%ADD15C,1.600000*%
%ADD16O,1.600000X1.600000*%
%ADD17C,2.032000*%
G04 APERTURE END LIST*
D10*
X68637319Y-40179583D02*
X69351604Y-40179583D01*
X69351604Y-40179583D02*
X69494461Y-40227202D01*
X69494461Y-40227202D02*
X69589700Y-40322440D01*
X69589700Y-40322440D02*
X69637319Y-40465297D01*
X69637319Y-40465297D02*
X69637319Y-40560535D01*
X68732557Y-39751011D02*
X68684938Y-39703392D01*
X68684938Y-39703392D02*
X68637319Y-39608154D01*
X68637319Y-39608154D02*
X68637319Y-39370059D01*
X68637319Y-39370059D02*
X68684938Y-39274821D01*
X68684938Y-39274821D02*
X68732557Y-39227202D01*
X68732557Y-39227202D02*
X68827795Y-39179583D01*
X68827795Y-39179583D02*
X68923033Y-39179583D01*
X68923033Y-39179583D02*
X69065890Y-39227202D01*
X69065890Y-39227202D02*
X69637319Y-39798630D01*
X69637319Y-39798630D02*
X69637319Y-39179583D01*
X54443333Y-27113569D02*
X54110000Y-26637378D01*
X53871905Y-27113569D02*
X53871905Y-26113569D01*
X53871905Y-26113569D02*
X54252857Y-26113569D01*
X54252857Y-26113569D02*
X54348095Y-26161188D01*
X54348095Y-26161188D02*
X54395714Y-26208807D01*
X54395714Y-26208807D02*
X54443333Y-26304045D01*
X54443333Y-26304045D02*
X54443333Y-26446902D01*
X54443333Y-26446902D02*
X54395714Y-26542140D01*
X54395714Y-26542140D02*
X54348095Y-26589759D01*
X54348095Y-26589759D02*
X54252857Y-26637378D01*
X54252857Y-26637378D02*
X53871905Y-26637378D01*
X54824286Y-26208807D02*
X54871905Y-26161188D01*
X54871905Y-26161188D02*
X54967143Y-26113569D01*
X54967143Y-26113569D02*
X55205238Y-26113569D01*
X55205238Y-26113569D02*
X55300476Y-26161188D01*
X55300476Y-26161188D02*
X55348095Y-26208807D01*
X55348095Y-26208807D02*
X55395714Y-26304045D01*
X55395714Y-26304045D02*
X55395714Y-26399283D01*
X55395714Y-26399283D02*
X55348095Y-26542140D01*
X55348095Y-26542140D02*
X54776667Y-27113569D01*
X54776667Y-27113569D02*
X55395714Y-27113569D01*
X41333333Y-27154819D02*
X41000000Y-26678628D01*
X40761905Y-27154819D02*
X40761905Y-26154819D01*
X40761905Y-26154819D02*
X41142857Y-26154819D01*
X41142857Y-26154819D02*
X41238095Y-26202438D01*
X41238095Y-26202438D02*
X41285714Y-26250057D01*
X41285714Y-26250057D02*
X41333333Y-26345295D01*
X41333333Y-26345295D02*
X41333333Y-26488152D01*
X41333333Y-26488152D02*
X41285714Y-26583390D01*
X41285714Y-26583390D02*
X41238095Y-26631009D01*
X41238095Y-26631009D02*
X41142857Y-26678628D01*
X41142857Y-26678628D02*
X40761905Y-26678628D01*
X42285714Y-27154819D02*
X41714286Y-27154819D01*
X42000000Y-27154819D02*
X42000000Y-26154819D01*
X42000000Y-26154819D02*
X41904762Y-26297676D01*
X41904762Y-26297676D02*
X41809524Y-26392914D01*
X41809524Y-26392914D02*
X41714286Y-26440533D01*
X34954819Y-41133333D02*
X35669104Y-41133333D01*
X35669104Y-41133333D02*
X35811961Y-41180952D01*
X35811961Y-41180952D02*
X35907200Y-41276190D01*
X35907200Y-41276190D02*
X35954819Y-41419047D01*
X35954819Y-41419047D02*
X35954819Y-41514285D01*
X35954819Y-40133333D02*
X35954819Y-40704761D01*
X35954819Y-40419047D02*
X34954819Y-40419047D01*
X34954819Y-40419047D02*
X35097676Y-40514285D01*
X35097676Y-40514285D02*
X35192914Y-40609523D01*
X35192914Y-40609523D02*
X35240533Y-40704761D01*
X48445180Y-37138095D02*
X47635657Y-37138095D01*
X47635657Y-37138095D02*
X47540419Y-37185714D01*
X47540419Y-37185714D02*
X47492800Y-37233333D01*
X47492800Y-37233333D02*
X47445180Y-37328571D01*
X47445180Y-37328571D02*
X47445180Y-37519047D01*
X47445180Y-37519047D02*
X47492800Y-37614285D01*
X47492800Y-37614285D02*
X47540419Y-37661904D01*
X47540419Y-37661904D02*
X47635657Y-37709523D01*
X47635657Y-37709523D02*
X48445180Y-37709523D01*
X47445180Y-38709523D02*
X47445180Y-38138095D01*
X47445180Y-38423809D02*
X48445180Y-38423809D01*
X48445180Y-38423809D02*
X48302323Y-38328571D01*
X48302323Y-38328571D02*
X48207085Y-38233333D01*
X48207085Y-38233333D02*
X48159466Y-38138095D01*
X61879819Y-34615416D02*
X61403628Y-34948749D01*
X61879819Y-35186844D02*
X60879819Y-35186844D01*
X60879819Y-35186844D02*
X60879819Y-34805892D01*
X60879819Y-34805892D02*
X60927438Y-34710654D01*
X60927438Y-34710654D02*
X60975057Y-34663035D01*
X60975057Y-34663035D02*
X61070295Y-34615416D01*
X61070295Y-34615416D02*
X61213152Y-34615416D01*
X61213152Y-34615416D02*
X61308390Y-34663035D01*
X61308390Y-34663035D02*
X61356009Y-34710654D01*
X61356009Y-34710654D02*
X61403628Y-34805892D01*
X61403628Y-34805892D02*
X61403628Y-35186844D01*
X60879819Y-34282082D02*
X60879819Y-33663035D01*
X60879819Y-33663035D02*
X61260771Y-33996368D01*
X61260771Y-33996368D02*
X61260771Y-33853511D01*
X61260771Y-33853511D02*
X61308390Y-33758273D01*
X61308390Y-33758273D02*
X61356009Y-33710654D01*
X61356009Y-33710654D02*
X61451247Y-33663035D01*
X61451247Y-33663035D02*
X61689342Y-33663035D01*
X61689342Y-33663035D02*
X61784580Y-33710654D01*
X61784580Y-33710654D02*
X61832200Y-33758273D01*
X61832200Y-33758273D02*
X61879819Y-33853511D01*
X61879819Y-33853511D02*
X61879819Y-34139225D01*
X61879819Y-34139225D02*
X61832200Y-34234463D01*
X61832200Y-34234463D02*
X61784580Y-34282082D01*
D11*
%TO.C,J2*%
X76002500Y-49266250D02*
X76742500Y-49266250D01*
X76742500Y-49266250D02*
X76742500Y-48766250D01*
X70182500Y-49026250D02*
X76502500Y-49026250D01*
X70182500Y-49026250D02*
X70182500Y-30665250D01*
X70642500Y-49026250D02*
X70642500Y-30665250D01*
X75942500Y-49026250D02*
X75942500Y-30665250D01*
X76502500Y-49026250D02*
X76502500Y-30665250D01*
X70182500Y-30665250D02*
X76502500Y-30665250D01*
%TO.C,R2*%
X51340000Y-22918750D02*
X51340000Y-23248750D01*
X51340000Y-25658750D02*
X51340000Y-25328750D01*
X57880000Y-22918750D02*
X51340000Y-22918750D01*
X57880000Y-23248750D02*
X57880000Y-22918750D01*
X57880000Y-25328750D02*
X57880000Y-25658750D01*
X57880000Y-25658750D02*
X51340000Y-25658750D01*
%TO.C,R1*%
X38322500Y-22918750D02*
X44862500Y-22918750D01*
X38322500Y-23248750D02*
X38322500Y-22918750D01*
X38322500Y-25328750D02*
X38322500Y-25658750D01*
X38322500Y-25658750D02*
X44862500Y-25658750D01*
X44862500Y-22918750D02*
X44862500Y-23248750D01*
X44862500Y-25658750D02*
X44862500Y-25328750D01*
%TO.C,J1*%
X27796250Y-30189000D02*
X34116250Y-30189000D01*
X27796250Y-51090000D02*
X27796250Y-30189000D01*
X27796250Y-51090000D02*
X34116250Y-51090000D01*
X28256250Y-51090000D02*
X28256250Y-30189000D01*
X33556250Y-51090000D02*
X33556250Y-30189000D01*
X33616250Y-51330000D02*
X34356250Y-51330000D01*
X34116250Y-51090000D02*
X34116250Y-30189000D01*
X34356250Y-51330000D02*
X34356250Y-50830000D01*
D12*
%TO.C,U1*%
X52273200Y-27969799D02*
G75*
G02*
X51866800Y-27969799I-203200J0D01*
G01*
X51866800Y-27969799D02*
G75*
G02*
X52273200Y-27969799I203200J0D01*
G01*
X54922200Y-45902199D02*
X49562800Y-45902199D01*
X54922200Y-29747799D02*
X54922200Y-45902199D01*
X49562800Y-45902199D02*
X49562800Y-29747799D01*
X49562800Y-29747799D02*
X54922200Y-29747799D01*
D11*
%TO.C,R3*%
X60425000Y-37718750D02*
X60095000Y-37718750D01*
X60425000Y-31178750D02*
X60425000Y-37718750D01*
X60095000Y-31178750D02*
X60425000Y-31178750D01*
X58015000Y-31178750D02*
X57685000Y-31178750D01*
X57685000Y-37718750D02*
X58015000Y-37718750D01*
X57685000Y-31178750D02*
X57685000Y-37718750D01*
%TD*%
%LPC*%
D13*
%TO.C,J2*%
X73342500Y-47466250D03*
D14*
X73342500Y-44926250D03*
X73342500Y-42386250D03*
X73342500Y-39846250D03*
X73342500Y-37306250D03*
X73342500Y-34766250D03*
X73342500Y-32226250D03*
%TD*%
D15*
%TO.C,R2*%
X58420000Y-24288750D03*
D16*
X50800000Y-24288750D03*
%TD*%
D15*
%TO.C,R1*%
X37782500Y-24288750D03*
D16*
X45402500Y-24288750D03*
%TD*%
D13*
%TO.C,J1*%
X30956250Y-49530000D03*
D14*
X30956250Y-46990000D03*
X30956250Y-44450000D03*
X30956250Y-41910000D03*
X30956250Y-39370000D03*
X30956250Y-36830000D03*
X30956250Y-34290000D03*
X30956250Y-31750000D03*
%TD*%
D17*
%TO.C,U1*%
X52070000Y-43264999D03*
X52070000Y-37824999D03*
X52070000Y-32385000D03*
%TD*%
D16*
%TO.C,R3*%
X59055000Y-38258750D03*
D15*
X59055000Y-30638750D03*
%TD*%
%LPD*%
M02*
