%TF.GenerationSoftware,KiCad,Pcbnew,8.0.1*%
%TF.CreationDate,2024-06-15T21:44:37+02:00*%
%TF.ProjectId,Makita_Akku_MOSFET_Platine,4d616b69-7461-45f4-916b-6b755f4d4f53,rev?*%
%TF.SameCoordinates,Original*%
%TF.FileFunction,Soldermask,Bot*%
%TF.FilePolarity,Negative*%
%FSLAX46Y46*%
G04 Gerber Fmt 4.6, Leading zero omitted, Abs format (unit mm)*
G04 Created by KiCad (PCBNEW 8.0.1) date 2024-06-15 21:44:37*
%MOMM*%
%LPD*%
G01*
G04 APERTURE LIST*
G04 APERTURE END LIST*
G36*
X32056250Y-50630000D02*
G01*
X29856250Y-50630000D01*
X29856250Y-48430000D01*
X32056250Y-48430000D01*
X32056250Y-50630000D01*
G37*
G36*
X74442500Y-48566250D02*
G01*
X74442496Y-48566250D01*
X72242504Y-48566250D01*
X72242500Y-48566250D01*
X72242500Y-46366250D01*
X74442500Y-46366250D01*
X74442500Y-48566250D01*
G37*
G36*
X31257279Y-45931992D02*
G01*
X31446562Y-46005320D01*
X31619148Y-46112181D01*
X31769160Y-46248935D01*
X31891489Y-46410925D01*
X31981969Y-46592634D01*
X32037520Y-46787876D01*
X32056250Y-46990000D01*
X32037520Y-47192124D01*
X31981969Y-47387366D01*
X31891489Y-47569075D01*
X31769160Y-47731065D01*
X31619148Y-47867819D01*
X31446562Y-47974680D01*
X31257279Y-48048008D01*
X31057745Y-48085308D01*
X30854755Y-48085308D01*
X30655221Y-48048008D01*
X30465938Y-47974680D01*
X30293352Y-47867819D01*
X30143340Y-47731065D01*
X30021011Y-47569075D01*
X29930531Y-47387366D01*
X29874980Y-47192124D01*
X29856250Y-46990000D01*
X29874980Y-46787876D01*
X29930531Y-46592634D01*
X30021011Y-46410925D01*
X30143340Y-46248935D01*
X30293352Y-46112181D01*
X30465938Y-46005320D01*
X30655221Y-45931992D01*
X30854755Y-45894692D01*
X31057745Y-45894692D01*
X31257279Y-45931992D01*
G37*
G36*
X73644819Y-43863708D02*
G01*
X73781833Y-43916787D01*
X73834913Y-43937351D01*
X73909315Y-43983419D01*
X74008236Y-44044668D01*
X74158892Y-44182009D01*
X74281746Y-44344693D01*
X74281746Y-44344694D01*
X74372614Y-44527182D01*
X74428403Y-44723260D01*
X74447213Y-44926250D01*
X74428403Y-45129240D01*
X74372614Y-45325318D01*
X74281746Y-45507806D01*
X74158893Y-45670490D01*
X74008238Y-45807830D01*
X73834913Y-45915149D01*
X73644819Y-45988791D01*
X73444432Y-46026250D01*
X73444430Y-46026250D01*
X73240570Y-46026250D01*
X73240568Y-46026250D01*
X73040180Y-45988791D01*
X72987101Y-45968227D01*
X72850087Y-45915149D01*
X72724564Y-45837428D01*
X72676763Y-45807831D01*
X72526107Y-45670490D01*
X72403253Y-45507806D01*
X72342758Y-45386314D01*
X72312386Y-45325318D01*
X72256597Y-45129240D01*
X72256596Y-45129239D01*
X72256596Y-45129236D01*
X72237786Y-44926250D01*
X72256596Y-44723263D01*
X72312387Y-44527180D01*
X72403253Y-44344693D01*
X72526107Y-44182009D01*
X72676763Y-44044668D01*
X72850087Y-43937351D01*
X73040180Y-43863708D01*
X73240568Y-43826250D01*
X73444432Y-43826250D01*
X73644819Y-43863708D01*
G37*
G36*
X31257279Y-43391992D02*
G01*
X31446562Y-43465320D01*
X31619148Y-43572181D01*
X31769160Y-43708935D01*
X31891489Y-43870925D01*
X31981969Y-44052634D01*
X32037520Y-44247876D01*
X32056250Y-44450000D01*
X32037520Y-44652124D01*
X31981969Y-44847366D01*
X31891489Y-45029075D01*
X31769160Y-45191065D01*
X31619148Y-45327819D01*
X31446562Y-45434680D01*
X31257279Y-45508008D01*
X31057745Y-45545308D01*
X30854755Y-45545308D01*
X30655221Y-45508008D01*
X30465938Y-45434680D01*
X30293352Y-45327819D01*
X30143340Y-45191065D01*
X30021011Y-45029075D01*
X29930531Y-44847366D01*
X29874980Y-44652124D01*
X29856250Y-44450000D01*
X29874980Y-44247876D01*
X29930531Y-44052634D01*
X30021011Y-43870925D01*
X30143340Y-43708935D01*
X30293352Y-43572181D01*
X30465938Y-43465320D01*
X30655221Y-43391992D01*
X30854755Y-43354692D01*
X31057745Y-43354692D01*
X31257279Y-43391992D01*
G37*
G36*
X52116603Y-42253589D02*
G01*
X52163723Y-42253589D01*
X52216195Y-42263397D01*
X52268212Y-42268521D01*
X52307729Y-42280508D01*
X52347971Y-42288031D01*
X52403705Y-42309622D01*
X52458806Y-42326337D01*
X52490286Y-42343163D01*
X52522755Y-42355742D01*
X52579176Y-42390676D01*
X52634459Y-42420226D01*
X52657684Y-42439286D01*
X52682119Y-42454416D01*
X52736262Y-42503774D01*
X52788420Y-42546579D01*
X52803875Y-42565411D01*
X52820645Y-42580699D01*
X52869322Y-42645158D01*
X52914773Y-42700540D01*
X52923562Y-42716984D01*
X52933600Y-42730276D01*
X52973528Y-42810462D01*
X53008662Y-42876193D01*
X53012409Y-42888546D01*
X53017151Y-42898069D01*
X53045165Y-42996528D01*
X53066478Y-43066787D01*
X53067178Y-43073894D01*
X53068448Y-43078358D01*
X53081655Y-43220886D01*
X53086000Y-43264999D01*
X53081654Y-43309115D01*
X53068448Y-43451639D01*
X53067178Y-43456101D01*
X53066478Y-43463211D01*
X53045160Y-43533484D01*
X53017151Y-43631928D01*
X53012410Y-43641448D01*
X53008662Y-43653805D01*
X52973521Y-43719548D01*
X52933600Y-43799721D01*
X52923564Y-43813009D01*
X52914773Y-43829458D01*
X52869313Y-43884850D01*
X52820645Y-43949298D01*
X52803879Y-43964582D01*
X52788420Y-43983419D01*
X52736251Y-44026232D01*
X52682119Y-44075581D01*
X52657689Y-44090706D01*
X52634459Y-44109772D01*
X52579164Y-44139327D01*
X52522755Y-44174255D01*
X52490293Y-44186830D01*
X52458806Y-44203661D01*
X52403693Y-44220379D01*
X52347971Y-44241966D01*
X52307736Y-44249487D01*
X52268212Y-44261477D01*
X52216192Y-44266600D01*
X52163723Y-44276409D01*
X52116603Y-44276409D01*
X52070000Y-44280999D01*
X52023397Y-44276409D01*
X51976277Y-44276409D01*
X51923806Y-44266600D01*
X51871788Y-44261477D01*
X51832264Y-44249487D01*
X51792028Y-44241966D01*
X51736301Y-44220377D01*
X51681194Y-44203661D01*
X51649709Y-44186832D01*
X51617244Y-44174255D01*
X51560827Y-44139323D01*
X51505541Y-44109772D01*
X51482313Y-44090709D01*
X51457880Y-44075581D01*
X51403738Y-44026224D01*
X51351580Y-43983419D01*
X51336123Y-43964585D01*
X51319354Y-43949298D01*
X51270674Y-43884835D01*
X51225227Y-43829458D01*
X51216437Y-43813014D01*
X51206399Y-43799721D01*
X51166464Y-43719521D01*
X51131338Y-43653805D01*
X51127591Y-43641453D01*
X51122848Y-43631928D01*
X51094823Y-43533431D01*
X51073522Y-43463211D01*
X51072822Y-43456107D01*
X51071551Y-43451639D01*
X51058328Y-43308943D01*
X51054000Y-43264999D01*
X51058327Y-43221057D01*
X51071551Y-43078358D01*
X51072822Y-43073889D01*
X51073522Y-43066787D01*
X51094818Y-42996581D01*
X51122848Y-42898069D01*
X51127592Y-42888541D01*
X51131338Y-42876193D01*
X51166457Y-42810490D01*
X51206399Y-42730276D01*
X51216439Y-42716980D01*
X51225227Y-42700540D01*
X51270664Y-42645173D01*
X51319354Y-42580699D01*
X51336127Y-42565408D01*
X51351580Y-42546579D01*
X51403727Y-42503782D01*
X51457880Y-42454416D01*
X51482318Y-42439284D01*
X51505541Y-42420226D01*
X51560815Y-42390680D01*
X51617244Y-42355742D01*
X51649716Y-42343162D01*
X51681194Y-42326337D01*
X51736289Y-42309623D01*
X51792028Y-42288031D01*
X51832271Y-42280508D01*
X51871788Y-42268521D01*
X51923803Y-42263397D01*
X51976277Y-42253589D01*
X52023397Y-42253589D01*
X52070000Y-42248999D01*
X52116603Y-42253589D01*
G37*
G36*
X73644819Y-41323708D02*
G01*
X73781833Y-41376787D01*
X73834913Y-41397351D01*
X73912632Y-41445473D01*
X74008236Y-41504668D01*
X74158892Y-41642009D01*
X74281746Y-41804693D01*
X74281746Y-41804694D01*
X74372614Y-41987182D01*
X74428403Y-42183260D01*
X74447213Y-42386250D01*
X74428403Y-42589240D01*
X74372614Y-42785318D01*
X74281746Y-42967806D01*
X74158893Y-43130490D01*
X74008238Y-43267830D01*
X73834913Y-43375149D01*
X73644819Y-43448791D01*
X73444432Y-43486250D01*
X73444430Y-43486250D01*
X73240570Y-43486250D01*
X73240568Y-43486250D01*
X73040180Y-43448791D01*
X72987101Y-43428227D01*
X72850087Y-43375149D01*
X72724564Y-43297428D01*
X72676763Y-43267831D01*
X72526107Y-43130490D01*
X72403253Y-42967806D01*
X72342758Y-42846314D01*
X72312386Y-42785318D01*
X72256597Y-42589240D01*
X72256596Y-42589239D01*
X72256596Y-42589236D01*
X72237786Y-42386250D01*
X72256596Y-42183263D01*
X72312387Y-41987180D01*
X72403253Y-41804693D01*
X72526107Y-41642009D01*
X72676763Y-41504668D01*
X72850087Y-41397351D01*
X73040180Y-41323708D01*
X73240568Y-41286250D01*
X73444432Y-41286250D01*
X73644819Y-41323708D01*
G37*
G36*
X31257279Y-40851992D02*
G01*
X31446562Y-40925320D01*
X31619148Y-41032181D01*
X31769160Y-41168935D01*
X31891489Y-41330925D01*
X31981969Y-41512634D01*
X32037520Y-41707876D01*
X32056250Y-41910000D01*
X32037520Y-42112124D01*
X31981969Y-42307366D01*
X31891489Y-42489075D01*
X31769160Y-42651065D01*
X31619148Y-42787819D01*
X31446562Y-42894680D01*
X31257279Y-42968008D01*
X31057745Y-43005308D01*
X30854755Y-43005308D01*
X30655221Y-42968008D01*
X30465938Y-42894680D01*
X30293352Y-42787819D01*
X30143340Y-42651065D01*
X30021011Y-42489075D01*
X29930531Y-42307366D01*
X29874980Y-42112124D01*
X29856250Y-41910000D01*
X29874980Y-41707876D01*
X29930531Y-41512634D01*
X30021011Y-41330925D01*
X30143340Y-41168935D01*
X30293352Y-41032181D01*
X30465938Y-40925320D01*
X30655221Y-40851992D01*
X30854755Y-40814692D01*
X31057745Y-40814692D01*
X31257279Y-40851992D01*
G37*
G36*
X73644819Y-38783708D02*
G01*
X73742311Y-38821477D01*
X73834913Y-38857351D01*
X73912632Y-38905473D01*
X74008236Y-38964668D01*
X74158892Y-39102009D01*
X74281746Y-39264693D01*
X74281746Y-39264694D01*
X74372614Y-39447182D01*
X74428403Y-39643260D01*
X74447213Y-39846250D01*
X74428403Y-40049240D01*
X74372614Y-40245318D01*
X74281746Y-40427806D01*
X74158893Y-40590490D01*
X74008238Y-40727830D01*
X73834913Y-40835149D01*
X73644819Y-40908791D01*
X73444432Y-40946250D01*
X73444430Y-40946250D01*
X73240570Y-40946250D01*
X73240568Y-40946250D01*
X73040180Y-40908791D01*
X72987101Y-40888227D01*
X72850087Y-40835149D01*
X72724564Y-40757428D01*
X72676763Y-40727831D01*
X72526107Y-40590490D01*
X72403253Y-40427806D01*
X72342758Y-40306314D01*
X72312386Y-40245318D01*
X72256597Y-40049240D01*
X72256596Y-40049239D01*
X72256596Y-40049236D01*
X72237786Y-39846250D01*
X72256596Y-39643263D01*
X72312387Y-39447180D01*
X72403253Y-39264693D01*
X72526107Y-39102009D01*
X72676763Y-38964668D01*
X72850087Y-38857351D01*
X73040180Y-38783708D01*
X73240568Y-38746250D01*
X73444432Y-38746250D01*
X73644819Y-38783708D01*
G37*
G36*
X31257279Y-38311992D02*
G01*
X31446562Y-38385320D01*
X31619148Y-38492181D01*
X31769160Y-38628935D01*
X31891489Y-38790925D01*
X31981969Y-38972634D01*
X32037520Y-39167876D01*
X32056250Y-39370000D01*
X32037520Y-39572124D01*
X31981969Y-39767366D01*
X31891489Y-39949075D01*
X31769160Y-40111065D01*
X31619148Y-40247819D01*
X31446562Y-40354680D01*
X31257279Y-40428008D01*
X31057745Y-40465308D01*
X30854755Y-40465308D01*
X30655221Y-40428008D01*
X30465938Y-40354680D01*
X30293352Y-40247819D01*
X30143340Y-40111065D01*
X30021011Y-39949075D01*
X29930531Y-39767366D01*
X29874980Y-39572124D01*
X29856250Y-39370000D01*
X29874980Y-39167876D01*
X29930531Y-38972634D01*
X30021011Y-38790925D01*
X30143340Y-38628935D01*
X30293352Y-38492181D01*
X30465938Y-38385320D01*
X30655221Y-38311992D01*
X30854755Y-38274692D01*
X31057745Y-38274692D01*
X31257279Y-38311992D01*
G37*
G36*
X59096811Y-37463461D02*
G01*
X59138588Y-37463461D01*
X59185718Y-37473478D01*
X59233017Y-37478808D01*
X59267408Y-37490842D01*
X59302110Y-37498218D01*
X59352117Y-37520483D01*
X59402107Y-37537975D01*
X59428128Y-37554325D01*
X59454835Y-37566216D01*
X59504633Y-37602396D01*
X59553792Y-37633285D01*
X59571444Y-37650937D01*
X59590084Y-37664480D01*
X59636165Y-37715658D01*
X59680465Y-37759958D01*
X59690654Y-37776174D01*
X59701946Y-37788715D01*
X59740573Y-37855620D01*
X59775775Y-37911643D01*
X59780170Y-37924203D01*
X59785535Y-37933496D01*
X59813010Y-38018055D01*
X59834942Y-38080733D01*
X59835773Y-38088113D01*
X59837195Y-38092488D01*
X59850076Y-38215056D01*
X59855000Y-38258750D01*
X59850076Y-38302447D01*
X59837195Y-38425011D01*
X59835773Y-38429385D01*
X59834942Y-38436767D01*
X59813005Y-38499457D01*
X59785535Y-38584003D01*
X59780171Y-38593293D01*
X59775775Y-38605857D01*
X59740566Y-38661890D01*
X59701946Y-38728784D01*
X59690656Y-38741322D01*
X59680465Y-38757542D01*
X59636155Y-38801851D01*
X59590084Y-38853019D01*
X59571448Y-38866558D01*
X59553792Y-38884215D01*
X59504623Y-38915109D01*
X59454835Y-38951283D01*
X59428134Y-38963171D01*
X59402107Y-38979525D01*
X59352107Y-38997020D01*
X59302110Y-39019281D01*
X59267414Y-39026655D01*
X59233017Y-39038692D01*
X59185715Y-39044021D01*
X59138588Y-39054039D01*
X59096811Y-39054039D01*
X59055000Y-39058750D01*
X59013189Y-39054039D01*
X58971412Y-39054039D01*
X58924284Y-39044021D01*
X58876983Y-39038692D01*
X58842586Y-39026656D01*
X58807889Y-39019281D01*
X58757887Y-38997018D01*
X58707893Y-38979525D01*
X58681868Y-38963172D01*
X58655164Y-38951283D01*
X58605369Y-38915105D01*
X58556208Y-38884215D01*
X58538554Y-38866561D01*
X58519915Y-38853019D01*
X58473833Y-38801840D01*
X58429535Y-38757542D01*
X58419345Y-38741325D01*
X58408053Y-38728784D01*
X58369420Y-38661870D01*
X58334225Y-38605857D01*
X58329830Y-38593297D01*
X58324464Y-38584003D01*
X58296980Y-38499417D01*
X58275058Y-38436767D01*
X58274226Y-38429389D01*
X58272804Y-38425011D01*
X58259908Y-38302315D01*
X58255000Y-38258750D01*
X58259908Y-38215188D01*
X58272804Y-38092488D01*
X58274226Y-38088108D01*
X58275058Y-38080733D01*
X58296975Y-38018095D01*
X58324464Y-37933496D01*
X58329831Y-37924199D01*
X58334225Y-37911643D01*
X58369413Y-37855640D01*
X58408053Y-37788715D01*
X58419347Y-37776171D01*
X58429535Y-37759958D01*
X58473826Y-37715666D01*
X58519917Y-37664478D01*
X58538559Y-37650933D01*
X58556208Y-37633285D01*
X58605354Y-37602404D01*
X58655162Y-37566217D01*
X58681873Y-37554324D01*
X58707893Y-37537975D01*
X58757877Y-37520484D01*
X58807889Y-37498218D01*
X58842592Y-37490841D01*
X58876983Y-37478808D01*
X58924281Y-37473478D01*
X58971412Y-37463461D01*
X59013189Y-37463461D01*
X59055000Y-37458750D01*
X59096811Y-37463461D01*
G37*
G36*
X52116603Y-36813589D02*
G01*
X52163723Y-36813589D01*
X52216195Y-36823397D01*
X52268212Y-36828521D01*
X52307729Y-36840508D01*
X52347971Y-36848031D01*
X52403705Y-36869622D01*
X52458806Y-36886337D01*
X52490286Y-36903163D01*
X52522755Y-36915742D01*
X52579176Y-36950676D01*
X52634459Y-36980226D01*
X52657684Y-36999286D01*
X52682119Y-37014416D01*
X52736262Y-37063774D01*
X52788420Y-37106579D01*
X52803875Y-37125411D01*
X52820645Y-37140699D01*
X52869322Y-37205158D01*
X52914773Y-37260540D01*
X52923562Y-37276984D01*
X52933600Y-37290276D01*
X52973528Y-37370462D01*
X53008662Y-37436193D01*
X53012409Y-37448546D01*
X53017151Y-37458069D01*
X53045165Y-37556528D01*
X53066478Y-37626787D01*
X53067178Y-37633894D01*
X53068448Y-37638358D01*
X53081655Y-37780886D01*
X53086000Y-37824999D01*
X53081654Y-37869115D01*
X53068448Y-38011639D01*
X53067178Y-38016101D01*
X53066478Y-38023211D01*
X53045160Y-38093484D01*
X53017151Y-38191928D01*
X53012410Y-38201448D01*
X53008662Y-38213805D01*
X52973521Y-38279548D01*
X52933600Y-38359721D01*
X52923564Y-38373009D01*
X52914773Y-38389458D01*
X52869313Y-38444850D01*
X52820645Y-38509298D01*
X52803879Y-38524582D01*
X52788420Y-38543419D01*
X52736251Y-38586232D01*
X52682119Y-38635581D01*
X52657689Y-38650706D01*
X52634459Y-38669772D01*
X52579164Y-38699327D01*
X52522755Y-38734255D01*
X52490293Y-38746830D01*
X52458806Y-38763661D01*
X52403693Y-38780379D01*
X52347971Y-38801966D01*
X52307736Y-38809487D01*
X52268212Y-38821477D01*
X52216192Y-38826600D01*
X52163723Y-38836409D01*
X52116603Y-38836409D01*
X52070000Y-38840999D01*
X52023397Y-38836409D01*
X51976277Y-38836409D01*
X51923806Y-38826600D01*
X51871788Y-38821477D01*
X51832264Y-38809487D01*
X51792028Y-38801966D01*
X51736301Y-38780377D01*
X51681194Y-38763661D01*
X51649709Y-38746832D01*
X51617244Y-38734255D01*
X51560827Y-38699323D01*
X51505541Y-38669772D01*
X51482313Y-38650709D01*
X51457880Y-38635581D01*
X51403738Y-38586224D01*
X51351580Y-38543419D01*
X51336123Y-38524585D01*
X51319354Y-38509298D01*
X51270674Y-38444835D01*
X51225227Y-38389458D01*
X51216437Y-38373014D01*
X51206399Y-38359721D01*
X51166464Y-38279521D01*
X51131338Y-38213805D01*
X51127591Y-38201453D01*
X51122848Y-38191928D01*
X51094823Y-38093431D01*
X51073522Y-38023211D01*
X51072822Y-38016107D01*
X51071551Y-38011639D01*
X51058328Y-37868943D01*
X51054000Y-37824999D01*
X51058327Y-37781057D01*
X51071551Y-37638358D01*
X51072822Y-37633889D01*
X51073522Y-37626787D01*
X51094818Y-37556581D01*
X51122848Y-37458069D01*
X51127592Y-37448541D01*
X51131338Y-37436193D01*
X51166457Y-37370490D01*
X51206399Y-37290276D01*
X51216439Y-37276980D01*
X51225227Y-37260540D01*
X51270664Y-37205173D01*
X51319354Y-37140699D01*
X51336127Y-37125408D01*
X51351580Y-37106579D01*
X51403727Y-37063782D01*
X51457880Y-37014416D01*
X51482318Y-36999284D01*
X51505541Y-36980226D01*
X51560815Y-36950680D01*
X51617244Y-36915742D01*
X51649716Y-36903162D01*
X51681194Y-36886337D01*
X51736289Y-36869623D01*
X51792028Y-36848031D01*
X51832271Y-36840508D01*
X51871788Y-36828521D01*
X51923803Y-36823397D01*
X51976277Y-36813589D01*
X52023397Y-36813589D01*
X52070000Y-36808999D01*
X52116603Y-36813589D01*
G37*
G36*
X73644819Y-36243708D02*
G01*
X73781833Y-36296787D01*
X73834913Y-36317351D01*
X73912632Y-36365473D01*
X74008236Y-36424668D01*
X74158892Y-36562009D01*
X74281746Y-36724693D01*
X74281746Y-36724694D01*
X74372614Y-36907182D01*
X74428403Y-37103260D01*
X74447213Y-37306250D01*
X74428403Y-37509240D01*
X74372614Y-37705318D01*
X74281746Y-37887806D01*
X74158893Y-38050490D01*
X74008238Y-38187830D01*
X73834913Y-38295149D01*
X73644819Y-38368791D01*
X73444432Y-38406250D01*
X73444430Y-38406250D01*
X73240570Y-38406250D01*
X73240568Y-38406250D01*
X73040180Y-38368791D01*
X72987101Y-38348227D01*
X72850087Y-38295149D01*
X72683380Y-38191928D01*
X72676763Y-38187831D01*
X72526107Y-38050490D01*
X72403253Y-37887806D01*
X72339593Y-37759958D01*
X72312386Y-37705318D01*
X72256597Y-37509240D01*
X72256596Y-37509239D01*
X72256596Y-37509236D01*
X72237786Y-37306250D01*
X72256596Y-37103263D01*
X72291603Y-36980226D01*
X72312386Y-36907182D01*
X72312636Y-36906679D01*
X72403253Y-36724693D01*
X72526107Y-36562009D01*
X72676763Y-36424668D01*
X72850087Y-36317351D01*
X73040180Y-36243708D01*
X73240568Y-36206250D01*
X73444432Y-36206250D01*
X73644819Y-36243708D01*
G37*
G36*
X31257279Y-35771992D02*
G01*
X31446562Y-35845320D01*
X31619148Y-35952181D01*
X31769160Y-36088935D01*
X31891489Y-36250925D01*
X31981969Y-36432634D01*
X32037520Y-36627876D01*
X32056250Y-36830000D01*
X32037520Y-37032124D01*
X31981969Y-37227366D01*
X31891489Y-37409075D01*
X31769160Y-37571065D01*
X31619148Y-37707819D01*
X31446562Y-37814680D01*
X31257279Y-37888008D01*
X31057745Y-37925308D01*
X30854755Y-37925308D01*
X30655221Y-37888008D01*
X30465938Y-37814680D01*
X30293352Y-37707819D01*
X30143340Y-37571065D01*
X30021011Y-37409075D01*
X29930531Y-37227366D01*
X29874980Y-37032124D01*
X29856250Y-36830000D01*
X29874980Y-36627876D01*
X29930531Y-36432634D01*
X30021011Y-36250925D01*
X30143340Y-36088935D01*
X30293352Y-35952181D01*
X30465938Y-35845320D01*
X30655221Y-35771992D01*
X30854755Y-35734692D01*
X31057745Y-35734692D01*
X31257279Y-35771992D01*
G37*
G36*
X73644819Y-33703708D02*
G01*
X73781833Y-33756787D01*
X73834913Y-33777351D01*
X73912632Y-33825473D01*
X74008236Y-33884668D01*
X74158892Y-34022009D01*
X74281746Y-34184693D01*
X74281746Y-34184694D01*
X74372614Y-34367182D01*
X74428403Y-34563260D01*
X74447213Y-34766250D01*
X74428403Y-34969240D01*
X74372614Y-35165318D01*
X74281746Y-35347806D01*
X74158893Y-35510490D01*
X74008238Y-35647830D01*
X73834913Y-35755149D01*
X73644819Y-35828791D01*
X73444432Y-35866250D01*
X73444430Y-35866250D01*
X73240570Y-35866250D01*
X73240568Y-35866250D01*
X73040180Y-35828791D01*
X72987101Y-35808227D01*
X72850087Y-35755149D01*
X72724564Y-35677428D01*
X72676763Y-35647831D01*
X72526107Y-35510490D01*
X72403253Y-35347806D01*
X72342758Y-35226314D01*
X72312386Y-35165318D01*
X72256597Y-34969240D01*
X72256596Y-34969239D01*
X72256596Y-34969236D01*
X72237786Y-34766250D01*
X72256596Y-34563263D01*
X72312387Y-34367180D01*
X72403253Y-34184693D01*
X72526107Y-34022009D01*
X72676763Y-33884668D01*
X72850087Y-33777351D01*
X73040180Y-33703708D01*
X73240568Y-33666250D01*
X73444432Y-33666250D01*
X73644819Y-33703708D01*
G37*
G36*
X31257279Y-33231992D02*
G01*
X31446562Y-33305320D01*
X31619148Y-33412181D01*
X31769160Y-33548935D01*
X31891489Y-33710925D01*
X31981969Y-33892634D01*
X32037520Y-34087876D01*
X32056250Y-34290000D01*
X32037520Y-34492124D01*
X31981969Y-34687366D01*
X31891489Y-34869075D01*
X31769160Y-35031065D01*
X31619148Y-35167819D01*
X31446562Y-35274680D01*
X31257279Y-35348008D01*
X31057745Y-35385308D01*
X30854755Y-35385308D01*
X30655221Y-35348008D01*
X30465938Y-35274680D01*
X30293352Y-35167819D01*
X30143340Y-35031065D01*
X30021011Y-34869075D01*
X29930531Y-34687366D01*
X29874980Y-34492124D01*
X29856250Y-34290000D01*
X29874980Y-34087876D01*
X29930531Y-33892634D01*
X30021011Y-33710925D01*
X30143340Y-33548935D01*
X30293352Y-33412181D01*
X30465938Y-33305320D01*
X30655221Y-33231992D01*
X30854755Y-33194692D01*
X31057745Y-33194692D01*
X31257279Y-33231992D01*
G37*
G36*
X52116603Y-31373590D02*
G01*
X52163723Y-31373590D01*
X52216195Y-31383398D01*
X52268212Y-31388522D01*
X52307729Y-31400509D01*
X52347971Y-31408032D01*
X52403705Y-31429623D01*
X52458806Y-31446338D01*
X52490286Y-31463164D01*
X52522755Y-31475743D01*
X52579176Y-31510677D01*
X52634459Y-31540227D01*
X52657684Y-31559287D01*
X52682119Y-31574417D01*
X52736262Y-31623775D01*
X52788420Y-31666580D01*
X52803875Y-31685412D01*
X52820645Y-31700700D01*
X52869322Y-31765159D01*
X52914773Y-31820541D01*
X52923562Y-31836985D01*
X52933600Y-31850277D01*
X52973528Y-31930463D01*
X53008662Y-31996194D01*
X53012409Y-32008547D01*
X53017151Y-32018070D01*
X53045165Y-32116529D01*
X53066478Y-32186788D01*
X53067178Y-32193895D01*
X53068448Y-32198359D01*
X53081655Y-32340887D01*
X53086000Y-32385000D01*
X53081654Y-32429116D01*
X53068448Y-32571640D01*
X53067178Y-32576102D01*
X53066478Y-32583212D01*
X53045160Y-32653485D01*
X53017151Y-32751929D01*
X53012410Y-32761449D01*
X53008662Y-32773806D01*
X52973521Y-32839549D01*
X52933600Y-32919722D01*
X52923564Y-32933010D01*
X52914773Y-32949459D01*
X52869313Y-33004851D01*
X52820645Y-33069299D01*
X52803879Y-33084583D01*
X52788420Y-33103420D01*
X52736251Y-33146233D01*
X52682119Y-33195582D01*
X52657689Y-33210707D01*
X52634459Y-33229773D01*
X52579164Y-33259328D01*
X52522755Y-33294256D01*
X52490293Y-33306831D01*
X52458806Y-33323662D01*
X52403693Y-33340380D01*
X52347971Y-33361967D01*
X52307736Y-33369488D01*
X52268212Y-33381478D01*
X52216192Y-33386601D01*
X52163723Y-33396410D01*
X52116603Y-33396410D01*
X52070000Y-33401000D01*
X52023397Y-33396410D01*
X51976277Y-33396410D01*
X51923806Y-33386601D01*
X51871788Y-33381478D01*
X51832264Y-33369488D01*
X51792028Y-33361967D01*
X51736301Y-33340378D01*
X51681194Y-33323662D01*
X51649709Y-33306833D01*
X51617244Y-33294256D01*
X51560827Y-33259324D01*
X51505541Y-33229773D01*
X51482313Y-33210710D01*
X51457880Y-33195582D01*
X51403738Y-33146225D01*
X51351580Y-33103420D01*
X51336123Y-33084586D01*
X51319354Y-33069299D01*
X51270674Y-33004836D01*
X51225227Y-32949459D01*
X51216437Y-32933015D01*
X51206399Y-32919722D01*
X51166464Y-32839522D01*
X51131338Y-32773806D01*
X51127591Y-32761454D01*
X51122848Y-32751929D01*
X51094823Y-32653432D01*
X51073522Y-32583212D01*
X51072822Y-32576108D01*
X51071551Y-32571640D01*
X51058328Y-32428944D01*
X51054000Y-32385000D01*
X51058327Y-32341058D01*
X51071551Y-32198359D01*
X51072822Y-32193890D01*
X51073522Y-32186788D01*
X51094818Y-32116582D01*
X51122848Y-32018070D01*
X51127592Y-32008542D01*
X51131338Y-31996194D01*
X51166457Y-31930491D01*
X51206399Y-31850277D01*
X51216439Y-31836981D01*
X51225227Y-31820541D01*
X51270664Y-31765174D01*
X51319354Y-31700700D01*
X51336127Y-31685409D01*
X51351580Y-31666580D01*
X51403727Y-31623783D01*
X51457880Y-31574417D01*
X51482318Y-31559285D01*
X51505541Y-31540227D01*
X51560815Y-31510681D01*
X51617244Y-31475743D01*
X51649716Y-31463163D01*
X51681194Y-31446338D01*
X51736289Y-31429624D01*
X51792028Y-31408032D01*
X51832271Y-31400509D01*
X51871788Y-31388522D01*
X51923803Y-31383398D01*
X51976277Y-31373590D01*
X52023397Y-31373590D01*
X52070000Y-31369000D01*
X52116603Y-31373590D01*
G37*
G36*
X73644819Y-31163708D02*
G01*
X73781833Y-31216787D01*
X73834913Y-31237351D01*
X73912632Y-31285473D01*
X74008236Y-31344668D01*
X74158892Y-31482009D01*
X74281746Y-31644693D01*
X74281746Y-31644694D01*
X74372614Y-31827182D01*
X74428403Y-32023260D01*
X74447213Y-32226250D01*
X74428403Y-32429240D01*
X74372614Y-32625318D01*
X74281746Y-32807806D01*
X74158893Y-32970490D01*
X74008238Y-33107830D01*
X73834913Y-33215149D01*
X73644819Y-33288791D01*
X73444432Y-33326250D01*
X73444430Y-33326250D01*
X73240570Y-33326250D01*
X73240568Y-33326250D01*
X73040180Y-33288791D01*
X72987101Y-33268227D01*
X72850087Y-33215149D01*
X72724564Y-33137428D01*
X72676763Y-33107831D01*
X72526107Y-32970490D01*
X72403253Y-32807806D01*
X72342758Y-32686314D01*
X72312386Y-32625318D01*
X72256597Y-32429240D01*
X72256596Y-32429239D01*
X72256596Y-32429236D01*
X72237786Y-32226250D01*
X72256596Y-32023263D01*
X72312387Y-31827180D01*
X72403253Y-31644693D01*
X72526107Y-31482009D01*
X72676763Y-31344668D01*
X72850087Y-31237351D01*
X73040180Y-31163708D01*
X73240568Y-31126250D01*
X73444432Y-31126250D01*
X73644819Y-31163708D01*
G37*
G36*
X31257279Y-30691992D02*
G01*
X31446562Y-30765320D01*
X31619148Y-30872181D01*
X31769160Y-31008935D01*
X31891489Y-31170925D01*
X31981969Y-31352634D01*
X32037520Y-31547876D01*
X32056250Y-31750000D01*
X32037520Y-31952124D01*
X31981969Y-32147366D01*
X31891489Y-32329075D01*
X31769160Y-32491065D01*
X31619148Y-32627819D01*
X31446562Y-32734680D01*
X31257279Y-32808008D01*
X31057745Y-32845308D01*
X30854755Y-32845308D01*
X30655221Y-32808008D01*
X30465938Y-32734680D01*
X30293352Y-32627819D01*
X30143340Y-32491065D01*
X30021011Y-32329075D01*
X29930531Y-32147366D01*
X29874980Y-31952124D01*
X29856250Y-31750000D01*
X29874980Y-31547876D01*
X29930531Y-31352634D01*
X30021011Y-31170925D01*
X30143340Y-31008935D01*
X30293352Y-30872181D01*
X30465938Y-30765320D01*
X30655221Y-30691992D01*
X30854755Y-30654692D01*
X31057745Y-30654692D01*
X31257279Y-30691992D01*
G37*
G36*
X59096811Y-29843461D02*
G01*
X59138588Y-29843461D01*
X59185718Y-29853478D01*
X59233017Y-29858808D01*
X59267408Y-29870842D01*
X59302110Y-29878218D01*
X59352117Y-29900483D01*
X59402107Y-29917975D01*
X59428128Y-29934325D01*
X59454835Y-29946216D01*
X59504633Y-29982396D01*
X59553792Y-30013285D01*
X59571444Y-30030937D01*
X59590084Y-30044480D01*
X59636165Y-30095658D01*
X59680465Y-30139958D01*
X59690654Y-30156174D01*
X59701946Y-30168715D01*
X59740573Y-30235620D01*
X59775775Y-30291643D01*
X59780170Y-30304203D01*
X59785535Y-30313496D01*
X59813010Y-30398055D01*
X59834942Y-30460733D01*
X59835773Y-30468113D01*
X59837195Y-30472488D01*
X59850076Y-30595056D01*
X59855000Y-30638750D01*
X59850076Y-30682447D01*
X59837195Y-30805011D01*
X59835773Y-30809385D01*
X59834942Y-30816767D01*
X59813005Y-30879457D01*
X59785535Y-30964003D01*
X59780171Y-30973293D01*
X59775775Y-30985857D01*
X59740566Y-31041890D01*
X59701946Y-31108784D01*
X59690656Y-31121322D01*
X59680465Y-31137542D01*
X59636155Y-31181851D01*
X59590084Y-31233019D01*
X59571448Y-31246558D01*
X59553792Y-31264215D01*
X59504623Y-31295109D01*
X59454835Y-31331283D01*
X59428134Y-31343171D01*
X59402107Y-31359525D01*
X59352107Y-31377020D01*
X59302110Y-31399281D01*
X59267414Y-31406655D01*
X59233017Y-31418692D01*
X59185715Y-31424021D01*
X59138588Y-31434039D01*
X59096811Y-31434039D01*
X59055000Y-31438750D01*
X59013189Y-31434039D01*
X58971412Y-31434039D01*
X58924284Y-31424021D01*
X58876983Y-31418692D01*
X58842586Y-31406656D01*
X58807889Y-31399281D01*
X58757887Y-31377018D01*
X58707893Y-31359525D01*
X58681868Y-31343172D01*
X58655164Y-31331283D01*
X58605369Y-31295105D01*
X58556208Y-31264215D01*
X58538554Y-31246561D01*
X58519915Y-31233019D01*
X58473833Y-31181840D01*
X58429535Y-31137542D01*
X58419345Y-31121325D01*
X58408053Y-31108784D01*
X58369420Y-31041870D01*
X58334225Y-30985857D01*
X58329830Y-30973297D01*
X58324464Y-30964003D01*
X58296980Y-30879417D01*
X58275058Y-30816767D01*
X58274226Y-30809389D01*
X58272804Y-30805011D01*
X58259908Y-30682315D01*
X58255000Y-30638750D01*
X58259908Y-30595188D01*
X58272804Y-30472488D01*
X58274226Y-30468108D01*
X58275058Y-30460733D01*
X58296975Y-30398095D01*
X58324464Y-30313496D01*
X58329831Y-30304199D01*
X58334225Y-30291643D01*
X58369413Y-30235640D01*
X58408053Y-30168715D01*
X58419347Y-30156171D01*
X58429535Y-30139958D01*
X58473826Y-30095666D01*
X58519917Y-30044478D01*
X58538559Y-30030933D01*
X58556208Y-30013285D01*
X58605354Y-29982404D01*
X58655162Y-29946217D01*
X58681873Y-29934324D01*
X58707893Y-29917975D01*
X58757877Y-29900484D01*
X58807889Y-29878218D01*
X58842592Y-29870841D01*
X58876983Y-29858808D01*
X58924281Y-29853478D01*
X58971412Y-29843461D01*
X59013189Y-29843461D01*
X59055000Y-29838750D01*
X59096811Y-29843461D01*
G37*
G36*
X37824311Y-23493461D02*
G01*
X37866088Y-23493461D01*
X37913218Y-23503478D01*
X37960517Y-23508808D01*
X37994908Y-23520842D01*
X38029610Y-23528218D01*
X38079617Y-23550483D01*
X38129607Y-23567975D01*
X38155628Y-23584325D01*
X38182335Y-23596216D01*
X38232133Y-23632396D01*
X38281292Y-23663285D01*
X38298944Y-23680937D01*
X38317584Y-23694480D01*
X38363665Y-23745658D01*
X38407965Y-23789958D01*
X38418154Y-23806174D01*
X38429446Y-23818715D01*
X38468073Y-23885620D01*
X38503275Y-23941643D01*
X38507670Y-23954203D01*
X38513035Y-23963496D01*
X38540510Y-24048055D01*
X38562442Y-24110733D01*
X38563273Y-24118113D01*
X38564695Y-24122488D01*
X38577576Y-24245056D01*
X38582500Y-24288750D01*
X38577576Y-24332447D01*
X38564695Y-24455011D01*
X38563273Y-24459385D01*
X38562442Y-24466767D01*
X38540505Y-24529457D01*
X38513035Y-24614003D01*
X38507671Y-24623293D01*
X38503275Y-24635857D01*
X38468066Y-24691890D01*
X38429446Y-24758784D01*
X38418156Y-24771322D01*
X38407965Y-24787542D01*
X38363655Y-24831851D01*
X38317584Y-24883019D01*
X38298948Y-24896558D01*
X38281292Y-24914215D01*
X38232123Y-24945109D01*
X38182335Y-24981283D01*
X38155634Y-24993171D01*
X38129607Y-25009525D01*
X38079607Y-25027020D01*
X38029610Y-25049281D01*
X37994914Y-25056655D01*
X37960517Y-25068692D01*
X37913215Y-25074021D01*
X37866088Y-25084039D01*
X37824311Y-25084039D01*
X37782500Y-25088750D01*
X37740689Y-25084039D01*
X37698912Y-25084039D01*
X37651784Y-25074021D01*
X37604483Y-25068692D01*
X37570086Y-25056656D01*
X37535389Y-25049281D01*
X37485387Y-25027018D01*
X37435393Y-25009525D01*
X37409368Y-24993172D01*
X37382664Y-24981283D01*
X37332869Y-24945105D01*
X37283708Y-24914215D01*
X37266054Y-24896561D01*
X37247415Y-24883019D01*
X37201333Y-24831840D01*
X37157035Y-24787542D01*
X37146845Y-24771325D01*
X37135553Y-24758784D01*
X37096920Y-24691870D01*
X37061725Y-24635857D01*
X37057330Y-24623297D01*
X37051964Y-24614003D01*
X37024480Y-24529417D01*
X37002558Y-24466767D01*
X37001726Y-24459389D01*
X37000304Y-24455011D01*
X36987408Y-24332315D01*
X36982500Y-24288750D01*
X36987408Y-24245188D01*
X37000304Y-24122488D01*
X37001726Y-24118108D01*
X37002558Y-24110733D01*
X37024475Y-24048095D01*
X37051964Y-23963496D01*
X37057331Y-23954199D01*
X37061725Y-23941643D01*
X37096913Y-23885640D01*
X37135553Y-23818715D01*
X37146847Y-23806171D01*
X37157035Y-23789958D01*
X37201326Y-23745666D01*
X37247417Y-23694478D01*
X37266059Y-23680933D01*
X37283708Y-23663285D01*
X37332854Y-23632404D01*
X37382662Y-23596217D01*
X37409373Y-23584324D01*
X37435393Y-23567975D01*
X37485377Y-23550484D01*
X37535389Y-23528218D01*
X37570092Y-23520841D01*
X37604483Y-23508808D01*
X37651781Y-23503478D01*
X37698912Y-23493461D01*
X37740689Y-23493461D01*
X37782500Y-23488750D01*
X37824311Y-23493461D01*
G37*
G36*
X45444311Y-23493461D02*
G01*
X45486088Y-23493461D01*
X45533218Y-23503478D01*
X45580517Y-23508808D01*
X45614908Y-23520842D01*
X45649610Y-23528218D01*
X45699617Y-23550483D01*
X45749607Y-23567975D01*
X45775628Y-23584325D01*
X45802335Y-23596216D01*
X45852133Y-23632396D01*
X45901292Y-23663285D01*
X45918944Y-23680937D01*
X45937584Y-23694480D01*
X45983665Y-23745658D01*
X46027965Y-23789958D01*
X46038154Y-23806174D01*
X46049446Y-23818715D01*
X46088073Y-23885620D01*
X46123275Y-23941643D01*
X46127670Y-23954203D01*
X46133035Y-23963496D01*
X46160510Y-24048055D01*
X46182442Y-24110733D01*
X46183273Y-24118113D01*
X46184695Y-24122488D01*
X46197576Y-24245056D01*
X46202500Y-24288750D01*
X46197576Y-24332447D01*
X46184695Y-24455011D01*
X46183273Y-24459385D01*
X46182442Y-24466767D01*
X46160505Y-24529457D01*
X46133035Y-24614003D01*
X46127671Y-24623293D01*
X46123275Y-24635857D01*
X46088066Y-24691890D01*
X46049446Y-24758784D01*
X46038156Y-24771322D01*
X46027965Y-24787542D01*
X45983655Y-24831851D01*
X45937584Y-24883019D01*
X45918948Y-24896558D01*
X45901292Y-24914215D01*
X45852123Y-24945109D01*
X45802335Y-24981283D01*
X45775634Y-24993171D01*
X45749607Y-25009525D01*
X45699607Y-25027020D01*
X45649610Y-25049281D01*
X45614914Y-25056655D01*
X45580517Y-25068692D01*
X45533215Y-25074021D01*
X45486088Y-25084039D01*
X45444311Y-25084039D01*
X45402500Y-25088750D01*
X45360689Y-25084039D01*
X45318912Y-25084039D01*
X45271784Y-25074021D01*
X45224483Y-25068692D01*
X45190086Y-25056656D01*
X45155389Y-25049281D01*
X45105387Y-25027018D01*
X45055393Y-25009525D01*
X45029368Y-24993172D01*
X45002664Y-24981283D01*
X44952869Y-24945105D01*
X44903708Y-24914215D01*
X44886054Y-24896561D01*
X44867415Y-24883019D01*
X44821333Y-24831840D01*
X44777035Y-24787542D01*
X44766845Y-24771325D01*
X44755553Y-24758784D01*
X44716920Y-24691870D01*
X44681725Y-24635857D01*
X44677330Y-24623297D01*
X44671964Y-24614003D01*
X44644480Y-24529417D01*
X44622558Y-24466767D01*
X44621726Y-24459389D01*
X44620304Y-24455011D01*
X44607408Y-24332315D01*
X44602500Y-24288750D01*
X44607408Y-24245188D01*
X44620304Y-24122488D01*
X44621726Y-24118108D01*
X44622558Y-24110733D01*
X44644475Y-24048095D01*
X44671964Y-23963496D01*
X44677331Y-23954199D01*
X44681725Y-23941643D01*
X44716913Y-23885640D01*
X44755553Y-23818715D01*
X44766847Y-23806171D01*
X44777035Y-23789958D01*
X44821326Y-23745666D01*
X44867417Y-23694478D01*
X44886059Y-23680933D01*
X44903708Y-23663285D01*
X44952854Y-23632404D01*
X45002662Y-23596217D01*
X45029373Y-23584324D01*
X45055393Y-23567975D01*
X45105377Y-23550484D01*
X45155389Y-23528218D01*
X45190092Y-23520841D01*
X45224483Y-23508808D01*
X45271781Y-23503478D01*
X45318912Y-23493461D01*
X45360689Y-23493461D01*
X45402500Y-23488750D01*
X45444311Y-23493461D01*
G37*
G36*
X50841811Y-23493461D02*
G01*
X50883588Y-23493461D01*
X50930718Y-23503478D01*
X50978017Y-23508808D01*
X51012408Y-23520842D01*
X51047110Y-23528218D01*
X51097117Y-23550483D01*
X51147107Y-23567975D01*
X51173128Y-23584325D01*
X51199835Y-23596216D01*
X51249633Y-23632396D01*
X51298792Y-23663285D01*
X51316444Y-23680937D01*
X51335084Y-23694480D01*
X51381165Y-23745658D01*
X51425465Y-23789958D01*
X51435654Y-23806174D01*
X51446946Y-23818715D01*
X51485573Y-23885620D01*
X51520775Y-23941643D01*
X51525170Y-23954203D01*
X51530535Y-23963496D01*
X51558010Y-24048055D01*
X51579942Y-24110733D01*
X51580773Y-24118113D01*
X51582195Y-24122488D01*
X51595076Y-24245056D01*
X51600000Y-24288750D01*
X51595076Y-24332447D01*
X51582195Y-24455011D01*
X51580773Y-24459385D01*
X51579942Y-24466767D01*
X51558005Y-24529457D01*
X51530535Y-24614003D01*
X51525171Y-24623293D01*
X51520775Y-24635857D01*
X51485566Y-24691890D01*
X51446946Y-24758784D01*
X51435656Y-24771322D01*
X51425465Y-24787542D01*
X51381155Y-24831851D01*
X51335084Y-24883019D01*
X51316448Y-24896558D01*
X51298792Y-24914215D01*
X51249623Y-24945109D01*
X51199835Y-24981283D01*
X51173134Y-24993171D01*
X51147107Y-25009525D01*
X51097107Y-25027020D01*
X51047110Y-25049281D01*
X51012414Y-25056655D01*
X50978017Y-25068692D01*
X50930715Y-25074021D01*
X50883588Y-25084039D01*
X50841811Y-25084039D01*
X50800000Y-25088750D01*
X50758189Y-25084039D01*
X50716412Y-25084039D01*
X50669284Y-25074021D01*
X50621983Y-25068692D01*
X50587586Y-25056656D01*
X50552889Y-25049281D01*
X50502887Y-25027018D01*
X50452893Y-25009525D01*
X50426868Y-24993172D01*
X50400164Y-24981283D01*
X50350369Y-24945105D01*
X50301208Y-24914215D01*
X50283554Y-24896561D01*
X50264915Y-24883019D01*
X50218833Y-24831840D01*
X50174535Y-24787542D01*
X50164345Y-24771325D01*
X50153053Y-24758784D01*
X50114420Y-24691870D01*
X50079225Y-24635857D01*
X50074830Y-24623297D01*
X50069464Y-24614003D01*
X50041980Y-24529417D01*
X50020058Y-24466767D01*
X50019226Y-24459389D01*
X50017804Y-24455011D01*
X50004908Y-24332315D01*
X50000000Y-24288750D01*
X50004908Y-24245188D01*
X50017804Y-24122488D01*
X50019226Y-24118108D01*
X50020058Y-24110733D01*
X50041975Y-24048095D01*
X50069464Y-23963496D01*
X50074831Y-23954199D01*
X50079225Y-23941643D01*
X50114413Y-23885640D01*
X50153053Y-23818715D01*
X50164347Y-23806171D01*
X50174535Y-23789958D01*
X50218826Y-23745666D01*
X50264917Y-23694478D01*
X50283559Y-23680933D01*
X50301208Y-23663285D01*
X50350354Y-23632404D01*
X50400162Y-23596217D01*
X50426873Y-23584324D01*
X50452893Y-23567975D01*
X50502877Y-23550484D01*
X50552889Y-23528218D01*
X50587592Y-23520841D01*
X50621983Y-23508808D01*
X50669281Y-23503478D01*
X50716412Y-23493461D01*
X50758189Y-23493461D01*
X50800000Y-23488750D01*
X50841811Y-23493461D01*
G37*
G36*
X58461811Y-23493461D02*
G01*
X58503588Y-23493461D01*
X58550718Y-23503478D01*
X58598017Y-23508808D01*
X58632408Y-23520842D01*
X58667110Y-23528218D01*
X58717117Y-23550483D01*
X58767107Y-23567975D01*
X58793128Y-23584325D01*
X58819835Y-23596216D01*
X58869633Y-23632396D01*
X58918792Y-23663285D01*
X58936444Y-23680937D01*
X58955084Y-23694480D01*
X59001165Y-23745658D01*
X59045465Y-23789958D01*
X59055654Y-23806174D01*
X59066946Y-23818715D01*
X59105573Y-23885620D01*
X59140775Y-23941643D01*
X59145170Y-23954203D01*
X59150535Y-23963496D01*
X59178010Y-24048055D01*
X59199942Y-24110733D01*
X59200773Y-24118113D01*
X59202195Y-24122488D01*
X59215076Y-24245056D01*
X59220000Y-24288750D01*
X59215076Y-24332447D01*
X59202195Y-24455011D01*
X59200773Y-24459385D01*
X59199942Y-24466767D01*
X59178005Y-24529457D01*
X59150535Y-24614003D01*
X59145171Y-24623293D01*
X59140775Y-24635857D01*
X59105566Y-24691890D01*
X59066946Y-24758784D01*
X59055656Y-24771322D01*
X59045465Y-24787542D01*
X59001155Y-24831851D01*
X58955084Y-24883019D01*
X58936448Y-24896558D01*
X58918792Y-24914215D01*
X58869623Y-24945109D01*
X58819835Y-24981283D01*
X58793134Y-24993171D01*
X58767107Y-25009525D01*
X58717107Y-25027020D01*
X58667110Y-25049281D01*
X58632414Y-25056655D01*
X58598017Y-25068692D01*
X58550715Y-25074021D01*
X58503588Y-25084039D01*
X58461811Y-25084039D01*
X58420000Y-25088750D01*
X58378189Y-25084039D01*
X58336412Y-25084039D01*
X58289284Y-25074021D01*
X58241983Y-25068692D01*
X58207586Y-25056656D01*
X58172889Y-25049281D01*
X58122887Y-25027018D01*
X58072893Y-25009525D01*
X58046868Y-24993172D01*
X58020164Y-24981283D01*
X57970369Y-24945105D01*
X57921208Y-24914215D01*
X57903554Y-24896561D01*
X57884915Y-24883019D01*
X57838833Y-24831840D01*
X57794535Y-24787542D01*
X57784345Y-24771325D01*
X57773053Y-24758784D01*
X57734420Y-24691870D01*
X57699225Y-24635857D01*
X57694830Y-24623297D01*
X57689464Y-24614003D01*
X57661980Y-24529417D01*
X57640058Y-24466767D01*
X57639226Y-24459389D01*
X57637804Y-24455011D01*
X57624908Y-24332315D01*
X57620000Y-24288750D01*
X57624908Y-24245188D01*
X57637804Y-24122488D01*
X57639226Y-24118108D01*
X57640058Y-24110733D01*
X57661975Y-24048095D01*
X57689464Y-23963496D01*
X57694831Y-23954199D01*
X57699225Y-23941643D01*
X57734413Y-23885640D01*
X57773053Y-23818715D01*
X57784347Y-23806171D01*
X57794535Y-23789958D01*
X57838826Y-23745666D01*
X57884917Y-23694478D01*
X57903559Y-23680933D01*
X57921208Y-23663285D01*
X57970354Y-23632404D01*
X58020162Y-23596217D01*
X58046873Y-23584324D01*
X58072893Y-23567975D01*
X58122877Y-23550484D01*
X58172889Y-23528218D01*
X58207592Y-23520841D01*
X58241983Y-23508808D01*
X58289281Y-23503478D01*
X58336412Y-23493461D01*
X58378189Y-23493461D01*
X58420000Y-23488750D01*
X58461811Y-23493461D01*
G37*
M02*
